<svg width="20" height="20" viewBox="0 0 20 20" fill="none" xmlns="http://www.w3.org/2000/svg">
<path d="M19.9453 5.88009C19.8985 4.81741 19.7266 4.08683 19.4804 3.45377C19.2265 2.7818 18.8358 2.18018 18.3239 1.68005C17.8238 1.17214 17.2182 0.777469 16.554 0.527481C15.9173 0.281309 15.1905 0.109461 14.1278 0.0626076C13.0572 0.0117859 12.7173 3.43323e-05 10.002 3.43323e-05C7.28659 3.43323e-05 6.94671 0.0117859 5.88006 0.0586395C4.81738 0.105493 4.0868 0.277493 3.45389 0.523513C2.78177 0.777469 2.18015 1.16817 1.68002 1.68005C1.17211 2.18018 0.777588 2.78577 0.527447 3.44996C0.281275 4.08683 0.109427 4.81344 0.0625733 5.87612C0.0117516 6.94673 0 7.28661 0 10.002C0 12.7174 0.0117516 13.0572 0.0586053 14.1239C0.105459 15.1866 0.277459 15.9171 0.523632 16.5502C0.777588 17.2222 1.17211 17.8238 1.68002 18.3239C2.18015 18.8318 2.78573 19.2265 3.44993 19.4765C4.0868 19.7227 4.81341 19.8945 5.87625 19.9414C6.94274 19.9884 7.28277 20 9.99815 20C12.7135 20 13.0534 19.9884 14.1201 19.9414C15.1827 19.8945 15.9133 19.7227 16.5462 19.4765C17.8903 18.9568 18.953 17.8942 19.4727 16.5502C19.7187 15.9133 19.8907 15.1866 19.9375 14.1239C19.9844 13.0572 19.9961 12.7174 19.9961 10.002C19.9961 7.28661 19.9922 6.94673 19.9453 5.88009ZM18.1443 14.0457C18.1012 15.0225 17.9372 15.5499 17.8004 15.9016C17.4644 16.7729 16.7729 17.4644 15.9016 17.8004C15.5499 17.9372 15.0187 18.1013 14.0457 18.1441C12.9908 18.1911 12.6745 18.2027 10.0059 18.2027C7.33741 18.2027 7.01706 18.1911 5.96598 18.1441C4.98923 18.1013 4.46178 17.9372 4.11015 17.8004C3.67656 17.6402 3.28189 17.3862 2.96155 17.0541C2.62945 16.7298 2.3755 16.3391 2.21525 15.9055C2.0785 15.5539 1.91444 15.0225 1.87155 14.0497C1.82455 12.9948 1.81295 12.6783 1.81295 10.0098C1.81295 7.34125 1.82455 7.02091 1.87155 5.96998C1.91444 4.99323 2.0785 4.46578 2.21525 4.11415C2.3755 3.68041 2.62945 3.28589 2.96552 2.9654C3.28968 2.6333 3.68038 2.37934 4.11412 2.21925C4.46575 2.0825 4.99717 1.91844 5.96995 1.8754C7.02485 1.82855 7.34138 1.8168 10.0097 1.8168C12.6822 1.8168 12.9986 1.82855 14.0497 1.8754C15.0264 1.91844 15.5539 2.0825 15.9055 2.21925C16.3391 2.37934 16.7338 2.6333 17.0541 2.9654C17.3862 3.28971 17.6402 3.68041 17.8004 4.11415C17.9372 4.46578 18.1012 4.99704 18.1443 5.96998C18.1911 7.02487 18.2029 7.34125 18.2029 10.0098C18.2029 12.6783 18.1911 12.9909 18.1443 14.0457Z" fill="white"/>
<path d="M10.0019 4.86426C7.16555 4.86426 4.86423 7.16543 4.86423 10.002C4.86423 12.8385 7.16555 15.1397 10.0019 15.1397C12.8385 15.1397 15.1397 12.8385 15.1397 10.002C15.1397 7.16543 12.8385 4.86426 10.0019 4.86426ZM10.0019 13.3347C8.16184 13.3347 6.66924 11.8423 6.66924 10.002C6.66924 8.16172 8.16184 6.66927 10.0019 6.66927C11.8422 6.66927 13.3347 8.16172 13.3347 10.002C13.3347 11.8423 11.8422 13.3347 10.0019 13.3347Z" fill="white"/>
<path d="M16.5424 4.66114C16.5424 5.3235 16.0054 5.86056 15.3428 5.86056C14.6805 5.86056 14.1434 5.3235 14.1434 4.66114C14.1434 3.99862 14.6805 3.46171 15.3428 3.46171C16.0054 3.46171 16.5424 3.99862 16.5424 4.66114Z" fill="white"/>
</svg>
