<svg width="21" height="20" viewBox="0 0 21 20" fill="none" xmlns="http://www.w3.org/2000/svg">
<path d="M19.5537 3.8147e-06H2.43857C1.64191 3.8147e-06 0.996155 0.645756 0.996155 1.44242V18.5576C0.996155 19.3543 1.64191 20 2.43857 20H19.5537C20.3504 20 20.9962 19.3543 20.9962 18.5576V1.44242C20.9962 0.645756 20.3504 3.8147e-06 19.5537 3.8147e-06V3.8147e-06ZM8.09027 15.1172H5.65482V7.79007H8.09027V15.1172ZM6.87262 6.78955H6.85675C6.03949 6.78955 5.51093 6.22696 5.51093 5.52384C5.51093 4.80484 6.05566 4.25782 6.88879 4.25782C7.72192 4.25782 8.23462 4.80484 8.25049 5.52384C8.25049 6.22696 7.72192 6.78955 6.87262 6.78955ZM16.872 15.1172H14.4369V11.1974C14.4369 10.2123 14.0842 9.54041 13.203 9.54041C12.5303 9.54041 12.1296 9.9936 11.9535 10.4311C11.8891 10.5876 11.8734 10.8064 11.8734 11.0254V15.1172H9.43808C9.43808 15.1172 9.46997 8.47748 9.43808 7.79007H11.8734V8.82752C12.197 8.32825 12.7761 7.61811 14.0682 7.61811C15.6705 7.61811 16.872 8.66532 16.872 10.9158V15.1172Z" fill="white"/>
</svg>
