<svg width="21" height="20" viewBox="0 0 21 20" fill="none" xmlns="http://www.w3.org/2000/svg">
<g clip-path="url(#clip0)">
<path d="M20.8741 18.6996L15.0642 12.8897C16.1662 11.5293 16.8295 9.79975 16.8295 7.9167C16.8295 3.55146 13.2781 0 8.91282 0C4.54757 0 0.996155 3.55146 0.996155 7.9167C0.996155 12.2819 4.54761 15.8334 8.91286 15.8334C10.7959 15.8334 12.5254 15.17 13.8859 14.0681L19.6957 19.878C19.8585 20.0407 20.1223 20.0407 20.285 19.878L20.8741 19.2888C21.0368 19.1261 21.0368 18.8623 20.8741 18.6996ZM8.91286 14.1667C5.4664 14.1667 2.66284 11.3632 2.66284 7.9167C2.66284 4.47025 5.4664 1.66668 8.91286 1.66668C12.3593 1.66668 15.1629 4.47025 15.1629 7.9167C15.1629 11.3632 12.3593 14.1667 8.91286 14.1667Z" fill="white"/>
</g>
<defs>
<clipPath id="clip0">
<rect width="20" height="20" fill="white" transform="translate(0.996155)"/>
</clipPath>
</defs>
</svg>