<svg width="21" height="18" viewBox="0 0 21 18" fill="none" xmlns="http://www.w3.org/2000/svg">
<path d="M20.9962 2.79875C20.2524 3.125 19.4599 3.34125 18.6337 3.44625C19.4837 2.93875 20.1324 2.14125 20.4374 1.18C19.6449 1.6525 18.7699 1.98625 17.8374 2.1725C17.0849 1.37125 16.0124 0.875004 14.8424 0.875004C12.5724 0.875004 10.7449 2.7175 10.7449 4.97625C10.7449 5.30125 10.7724 5.61375 10.8399 5.91125C7.43115 5.745 4.4149 4.11125 2.38865 1.6225C2.0349 2.23625 1.8274 2.93875 1.8274 3.695C1.8274 5.115 2.55865 6.37375 3.64865 7.1025C2.9899 7.09 2.34365 6.89875 1.79615 6.5975C1.79615 6.61 1.79615 6.62625 1.79615 6.6425C1.79615 8.635 3.2174 10.29 5.08115 10.6713C4.7474 10.7625 4.38365 10.8063 4.00615 10.8063C3.74365 10.8063 3.47865 10.7913 3.2299 10.7363C3.76115 12.36 5.26865 13.5538 7.06116 13.5925C5.66615 14.6838 3.8949 15.3413 1.9774 15.3413C1.64115 15.3413 1.31865 15.3263 0.996155 15.285C2.8124 16.4563 4.9649 17.125 7.28615 17.125C14.8312 17.125 18.9562 10.875 18.9562 5.4575C18.9562 5.27625 18.9499 5.10125 18.9412 4.9275C19.7549 4.35 20.4387 3.62875 20.9962 2.79875Z" fill="white"/>
</svg>
